<?xml version="1.0" standalone="no"?>
<!DOCTYPE svg PUBLIC "-//W3C//DTD SVG 1.1//EN" "http://www.w3.org/Graphics/SVG/1.1/DTD/svg11.dtd">
<svg t="1729061077960" class="icon" viewBox="0 0 1024 1024" version="1.1" xmlns="http://www.w3.org/2000/svg" p-id="2975" xmlns:xlink="http://www.w3.org/1999/xlink" width="200" height="200">
<path d="M761.28 70.4H262.72A176.32 176.32 0 0 0 86.4 246.72v530.56a176.32 176.32 0 0 0 176.32 176.32h498.56a176.32 176.32 0 0 0 176.32-176.32V246.72a176.32 176.32 0 0 0-176.32-176.32zM397.76 153.6h234.24a45.44 45.44 0 0 0 0 6.4v245.44l-91.52-78.4a41.92 41.92 0 0 0-54.72 0l-86.72 76.16V160a45.44 45.44 0 0 0-1.28-6.4zM854.4 777.28a93.12 93.12 0 0 1-93.12 93.12H262.72a93.12 93.12 0 0 1-93.12-93.12V246.72A93.12 93.12 0 0 1 262.72 153.6h54.4a45.44 45.44 0 0 0 0 6.4v256a78.08 78.08 0 0 0 129.6 58.24L512 413.76l72.64 64a77.44 77.44 0 0 0 50.56 18.88 79.04 79.04 0 0 0 32-7.04 77.44 77.44 0 0 0 46.72-73.6V160a45.44 45.44 0 0 0 0-6.4h48.64a93.12 93.12 0 0 1 91.84 93.12z" p-id="2976"></path>
</svg>